<?xml version="1.0" encoding="iso-8859-1"?>
<!-- Generator: Adobe Illustrator 19.0.0, SVG Export Plug-In . SVG Version: 6.00 Build 0)  -->
<svg xmlns="http://www.w3.org/2000/svg" xmlns:xlink="http://www.w3.org/1999/xlink" version="1.1" id="Layer_1" x="0px" y="0px" viewBox="0 0 512 512" style="enable-background:new 0 0 512 512;" xml:space="preserve" width="512px" height="512px">
<g>
	<g>
		<circle cx="198.902" cy="173.538" r="15.734" fill="#FFFFFF"/>
	</g>
</g>
<g>
	<g>
		<circle cx="312.857" cy="173.538" r="15.734" fill="#FFFFFF"/>
	</g>
</g>
<g>
	<g>
		<path d="M420.793,434.238c-0.566-8.865-1.848-17.638-4.572-26.176c-5.687-17.83-16.464-33.879-30.816-45.89V235.898    c20.397-5.113,35.55-23.595,35.55-45.555c0-21.63-15.119-40.365-35.55-45.532v-15.282C385.406,58.106,327.301,0,255.877,0    S126.35,58.106,126.35,129.528v15.281c-20.432,5.168-35.55,23.903-35.55,45.533c0,21.96,15.152,40.441,35.55,45.555    c0,0,0,126.264,0,126.276c0,1.158-6.495,5.931-7.539,7.005c-2.657,2.739-5.155,5.632-7.479,8.659    c-4.519,5.888-8.372,12.283-11.465,19.03c-8.528,18.601-9.067,37.747-9.067,57.78c0,14.323,0,28.645,0,42.968    c0,2.13,0,4.262,0,6.392c0,4.415,3.579,7.993,7.993,7.993h56.856h200.457h56.857c4.414,0,7.993-3.578,7.993-7.993    c0-10.592,0-21.184,0-31.776C420.955,459.662,421.6,446.859,420.793,434.238z M385.406,192.595c0-0.001,0-0.001,0-0.002    c0-0.003,0-0.005,0-0.009v-31.019c11.465,4.599,19.564,15.915,19.564,28.777c0,13.048-8.12,24.223-19.564,28.78V192.595z     M142.335,129.528h0.001c0-62.608,50.935-113.543,113.543-113.543S369.42,66.921,369.42,129.528v12.094    c-1.021-0.226-2.03-0.457-3.033-0.694c-26.759-6.303-51.8-17.723-73.067-35.338c-2.627-2.176-5.121-4.413-7.464-6.874    c-16.856-16.919-22.386-32.03-22.43-32.149c-1.119-3.212-4.148-5.364-7.548-5.364c-3.278,0-6.194,2.011-7.402,5.032    c-0.042,0.102-0.098,0.196-0.135,0.3c-0.038,0.109-2.9,7.926-10.745,18.586c-0.013,0.018-0.026,0.036-0.039,0.054    c-0.176,0.239-0.361,0.484-0.544,0.726c-7.236,9.624-18.537,21.465-35.533,32.208c-0.193,0.122-0.385,0.246-0.578,0.367    c-0.35,0.218-0.711,0.436-1.066,0.654c-19.32,11.819-39.999,18.604-57.501,22.491V129.528z M142.336,173.537v-15.565    c0.532-0.11,1.047-0.228,1.574-0.34c41.695-8.879,83.839-30.195,108.636-65.923c1.23-1.771,2.337-3.466,3.331-5.065    c3.978,6.398,9.767,14.312,17.912,22.607c18.893,19.24,43.753,33.328,69.264,41.789c8.109,2.69,16.476,4.822,24.809,6.596    c0.521,0.111,1.032,0.228,1.557,0.336c0,10.212,0,20.423,0,30.635c0,20.307-4.063,40.381-13.86,58.292    c-8.155,14.907-19.669,27.922-33.453,37.856c-11.998,8.645-25.669,14.916-40.061,18.324c-31.778,7.526-65.94,0.749-92.421-18.341    c-11.905-8.583-22.125-19.466-29.937-31.891c-8.862-14.096-14.533-30.1-16.531-46.632    C141.856,195.409,142.336,184.403,142.336,173.537z M259.101,377.722h-6.448l-7.598-13.276l7.019-9.589h7.607l7.019,9.589    L259.101,377.722z M266.191,431.297l-10.311,14.475l-10.315-14.476l8.793-37.588h3.038L266.191,431.297z M263.736,338.87H248.02    h-17.737v-19.293c0,1.412,20.879,2.458,22.865,2.499c9.492,0.199,19.014-0.633,28.325-2.499v19.293H263.736z M228.605,367.882    l10.917,19.073l-6.315,26.994L191.1,354.855h31.191h9.975l-3.174,4.335C227.228,361.739,227.036,365.143,228.605,367.882z     M282.665,359.192l-3.174-4.335h9.974h31.199l-42.113,59.103l-6.317-27.003l10.917-19.073    C284.718,365.143,284.529,361.739,282.665,359.192z M106.786,190.341c0-12.861,8.1-24.177,19.564-28.778v11.964    c0,0.003,0,0.006,0,0.011v45.585C114.905,214.567,106.786,203.392,106.786,190.341z M147.657,496.015h-40.871v-57.518    c0-1.291,0.039-2.571,0.097-3.847c0.013-0.284,0.027-0.566,0.043-0.848c0.071-1.283,0.163-2.562,0.292-3.829    c0.002-0.021,0.005-0.043,0.007-0.064c0.135-1.318,0.305-2.626,0.501-3.926c0.017-0.116,0.034-0.232,0.051-0.349    c3.413-22.018,15.444-41.224,32.527-54.053c0.086-0.065,0.173-0.128,0.259-0.193c1.004-0.747,2.023-1.475,3.061-2.177    c0.042-0.028,0.082-0.057,0.123-0.084c1.277-0.862,2.585-1.68,3.91-2.471V496.015z M142.336,351.23v-96.355    c0.106,0.192,0.22,0.377,0.325,0.569c15.495,27.783,41.497,49.586,71.636,59.822v23.604c-12.658,0-25.425-0.766-38.009,0.997    c-6.056,0.848-12.036,2.268-17.829,4.228C156.556,344.74,142.336,349.307,142.336,351.23z M163.642,496.015V359.28    c2.987-1.012,6.044-1.868,9.169-2.542l76.561,107.448c0.188,0.263,0.389,0.513,0.604,0.748c1.505,1.649,3.644,2.606,5.905,2.606    c0.233,0,0.464-0.022,0.694-0.042c0.088-0.007,0.178-0.005,0.265-0.016c0.188-0.022,0.371-0.065,0.555-0.101    c0.127-0.024,0.257-0.039,0.382-0.069c0.09-0.022,0.176-0.056,0.264-0.081c0.215-0.061,0.431-0.119,0.639-0.197    c0.015-0.005,0.029-0.014,0.044-0.019c1.455-0.554,2.738-1.526,3.665-2.828l76.56-107.447c3.124,0.672,6.178,1.528,9.162,2.54    v136.736H163.642z M345.565,341.83c-4.235-1.055-8.474-1.744-12.733-2.188c-6.063-0.633-12.164-0.772-18.344-0.772    c-1.213,0-17.029,0-17.029,0v-23.604c0.434-0.148,0.863-0.305,1.295-0.457c0.35-0.123,0.701-0.244,1.05-0.37    c27.887-10.09,52.005-30.037,67.25-55.461c0.178-0.297,0.354-0.596,0.53-0.894c0.527-0.896,1.044-1.799,1.551-2.709    c0.094-0.168,0.194-0.333,0.287-0.501v96.356c0-1.221-9.723-4.725-11.009-5.242C354.232,344.309,349.936,342.919,345.565,341.83z     M404.97,496.015h-40.872v-129.36c1.323,0.79,2.628,1.606,3.903,2.466c0.047,0.032,0.095,0.065,0.142,0.097    c1.029,0.698,2.041,1.42,3.037,2.161c0.094,0.069,0.188,0.139,0.28,0.208c17.079,12.829,29.106,32.032,32.519,54.046    c0.018,0.116,0.034,0.233,0.051,0.35c0.196,1.299,0.366,2.608,0.501,3.926c0.002,0.021,0.005,0.043,0.007,0.064    c0.129,1.267,0.221,2.546,0.292,3.829c0.016,0.282,0.029,0.565,0.042,0.848c0.059,1.276,0.098,2.557,0.098,3.847V496.015z" fill="#FFFFFF"/>
	</g>
</g>
<g>
	<g>
		<path d="M302.906,230.212c-2.57-3.589-7.563-4.415-11.153-1.843c-7.498,5.371-21.244,8.708-35.87,8.708    c-14.632,0-28.381-3.339-35.878-8.713c-3.588-2.572-8.581-1.748-11.153,1.84c-2.572,3.587-1.749,8.581,1.839,11.153    c10.225,7.33,27.12,11.706,45.191,11.706c18.065,0,34.954-4.374,45.18-11.699C304.651,238.793,305.477,233.8,302.906,230.212z" fill="#FFFFFF"/>
	</g>
</g>
<g>
</g>
<g>
</g>
<g>
</g>
<g>
</g>
<g>
</g>
<g>
</g>
<g>
</g>
<g>
</g>
<g>
</g>
<g>
</g>
<g>
</g>
<g>
</g>
<g>
</g>
<g>
</g>
<g>
</g>
</svg>
